<svg width="24" height="24" viewBox="0 0 24 24" fill="none" xmlns="http://www.w3.org/2000/svg">
  <path d="M3 3H21V21H3V3Z" fill="#38bdf8"/>
  <path d="M16.5 13.5C16.5 12.12 15.69 11.25 14.25 11.25C12.93 11.25 12 12.03 12 13.5H9.75C9.75 10.83 11.58 9 14.1 9C16.74 9 18.75 10.55 18.75 13.28C18.75 15.48 17.28 16.65 15.42 17.28L15 17.43C13.5 17.94 13.02 18.33 13.02 19.31H10.77C10.77 17.41 11.76 16.46 13.74 15.81L14.16 15.66C15.54 15.23 16.5 14.63 16.5 13.5ZM13.1 19.7C13.1 18.83 13.79 18.15 14.65 18.15C15.51 18.15 16.2 18.83 16.2 19.7C16.2 20.56 15.51 21.25 14.65 21.25C13.79 21.25 13.1 20.56 13.1 19.7Z" fill="black"/>
  <path d="M8.25 18V9H10.5V18H8.25Z" fill="black"/>
</svg> 