<svg width="24" height="24" viewBox="0 0 24 24" fill="none" xmlns="http://www.w3.org/2000/svg">
  <path d="M12 21.9023C11.6779 21.9023 11.3704 21.8161 11.0917 21.6581L8.45931 20.0741C8.04675 19.8445 8.25358 19.7727 8.38341 19.7296C8.90624 19.5572 9.00673 19.5141 9.54394 19.1908C9.59981 19.1621 9.66993 19.1765 9.72579 19.2052L11.7512 20.4329C11.8186 20.4761 11.9191 20.4761 11.9749 20.4329L19.9568 15.8232C20.0268 15.7801 20.0689 15.6939 20.0689 15.6077V6.38826C20.0689 6.30204 20.0268 6.21582 19.9568 6.1727L11.9749 1.56303C11.9049 1.51991 11.8186 1.51991 11.7512 1.56303L3.77367 6.1727C3.70359 6.21582 3.66147 6.30204 3.66147 6.38826V15.6077C3.66147 15.6939 3.70359 15.7801 3.77367 15.8232L5.85906 17.044C7.03106 17.6302 7.79533 16.9001 7.79533 16.1699V7.25068C7.79533 7.12134 7.89582 7.02073 8.0257 7.02073H9.14082C9.2707 7.02073 9.37119 7.12134 9.37119 7.25068V16.1699C9.37119 17.9085 8.34607 18.9722 6.67532 18.9722C6.19561 18.9722 5.81664 18.9722 4.8336 18.4721L2.8345 17.3078C2.27729 16.9845 1.93164 16.3983 1.93164 15.7658V6.38826C1.93164 5.75578 2.27729 5.16954 2.8345 4.84622L10.8164 0.23656C11.3599 -0.0724793 12.0538 -0.0724793 12.5972 0.23656L20.5792 4.84622C21.1364 5.16954 21.482 5.75578 21.482 6.38826V15.6077C21.482 16.2402 21.1364 16.8264 20.5792 17.1497L12.5972 21.7594C12.3185 21.8161 12.011 21.8592 12 21.9023Z" fill="#38bdf8"/>
  <path d="M15.1157 15.693C11.8471 15.693 11.0828 14.4509 11.0828 13.3867C11.0828 13.2573 11.1833 13.1567 11.3132 13.1567H12.4567C12.5715 13.1567 12.6578 13.2286 12.6578 13.3436C12.8538 14.1456 13.2328 14.5407 15.1157 14.5407C16.6053 14.5407 17.26 14.2461 17.26 13.4296C17.26 13.0058 17.0913 12.7111 14.6362 12.459C12.5857 12.2363 11.3575 11.6644 11.3575 10.1414C11.3575 8.74719 12.5152 7.90916 14.7652 7.90916C17.26 7.90916 18.3319 8.68994 18.4746 10.371C18.4746 10.4285 18.4467 10.486 18.4046 10.5292C18.3624 10.5723 18.3061 10.6005 18.2502 10.6005H17.1068C16.9919 10.6005 16.9057 10.5292 16.8914 10.4285C16.6675 9.50489 16.1526 9.0617 14.7509 9.0617C13.1628 9.0617 12.864 9.61867 12.864 10.0856C12.864 10.6574 13.191 10.8231 15.5226 11.1322C17.8258 11.4414 18.7526 11.9989 18.7526 13.4865C18.7526 14.9951 17.5099 15.693 15.1157 15.693Z" fill="#38bdf8"/>
</svg> 