<svg width="24" height="24" viewBox="0 0 24 24" fill="none" xmlns="http://www.w3.org/2000/svg">
  <path d="M11.751 3.159C5.903 3.159 6.285 5.346 6.285 5.346L6.29 7.619H11.833V8.386H4.132C4.132 8.386 2 8.097 2 13.879C2 19.661 3.873 19.514 3.873 19.514H5.73V17.112C5.73 17.112 5.653 15.241 7.569 15.241H13.047C13.047 15.241 14.93 15.262 14.93 13.419V6.034C14.93 6.034 15.168 3.159 11.751 3.159ZM8.893 5.027C9.32 5.027 9.668 5.374 9.668 5.802C9.668 6.232 9.32 6.579 8.893 6.579C8.464 6.579 8.117 6.232 8.117 5.802C8.117 5.374 8.464 5.027 8.893 5.027Z" fill="#38bdf8"/>
  <path d="M12.199 20.841C18.047 20.841 17.665 18.654 17.665 18.654L17.66 16.381H12.117V15.614H19.818C19.818 15.614 21.95 15.903 21.95 10.121C21.95 4.339 20.077 4.486 20.077 4.486H18.22V6.888C18.22 6.888 18.297 8.759 16.381 8.759H10.903C10.903 8.759 9.02 8.738 9.02 10.581V17.966C9.02 17.966 8.782 20.841 12.199 20.841ZM15.057 18.973C14.628 18.973 14.281 18.626 14.281 18.198C14.281 17.768 14.628 17.421 15.057 17.421C15.486 17.421 15.833 17.768 15.833 18.198C15.833 18.626 15.486 18.973 15.057 18.973Z" fill="#38bdf8"/>
</svg> 