<svg xmlns="http://www.w3.org/2000/svg" viewBox="0 0 24 24" fill="none" width="24" height="24">
  <path d="M12 13.5C12.8284 13.5 13.5 12.8284 13.5 12C13.5 11.1716 12.8284 10.5 12 10.5C11.1716 10.5 10.5 11.1716 10.5 12C10.5 12.8284 11.1716 13.5 12 13.5Z" fill="#38bdf8"/>
  <path d="M12 17.7C15.9 17.7 20.2 16.6 20.2 12C20.2 7.4 15.9 6.3 12 6.3C8.1 6.3 3.8 7.4 3.8 12C3.8 16.6 8.1 17.7 12 17.7Z" stroke="#38bdf8" stroke-width="1.5"/>
  <path d="M14.658 9.32996C17.228 10.23 18.928 11.6 18.928 12C18.928 12.4 17.228 13.77 14.658 14.67" stroke="#38bdf8" stroke-width="1.5" stroke-linecap="round"/>
  <path d="M9.34196 14.67C6.77196 13.77 5.07196 12.4 5.07196 12C5.07196 11.6 6.77196 10.23 9.34196 9.32996" stroke="#38bdf8" stroke-width="1.5" stroke-linecap="round"/>
  <path d="M12 6.30005C13.177 6.30005 14.128 8.87205 14.128 12C14.128 15.128 13.177 17.7 12 17.7" stroke="#38bdf8" stroke-width="1.5" stroke-linecap="round"/>
  <path d="M12 17.7C10.823 17.7 9.87196 15.128 9.87196 12C9.87196 8.87205 10.823 6.30005 12 6.30005" stroke="#38bdf8" stroke-width="1.5" stroke-linecap="round"/>
</svg> 