<svg width="24" height="24" viewBox="0 0 24 24" fill="none" xmlns="http://www.w3.org/2000/svg">
  <path d="M12.001 4.8C9.601 4.8 8.101 6 7.501 8.4C8.401 7.2 9.401 6.6 10.501 6.6C11.101 6.6 11.601 6.8 12.001 7.2C12.701 7.8 13.401 8.4 14.701 8.4C17.101 8.4 18.601 7.2 19.201 4.8C18.301 6 17.301 6.6 16.201 6.6C15.601 6.6 15.101 6.4 14.701 6C14.001 5.4 13.301 4.8 12.001 4.8ZM7.501 9.6C5.101 9.6 3.601 10.8 3.001 13.2C3.901 12 4.901 11.4 6.001 11.4C6.601 11.4 7.101 11.6 7.501 12C8.201 12.6 8.901 13.2 10.201 13.2C12.601 13.2 14.101 12 14.701 9.6C13.801 10.8 12.801 11.4 11.701 11.4C11.101 11.4 10.601 11.2 10.201 10.8C9.501 10.2 8.801 9.6 7.501 9.6Z" fill="#38bdf8"/>
</svg> 